<svg width="116" height="20" viewBox="0 0 116 20" fill="none" xmlns="http://www.w3.org/2000/svg">
<path d="M9.04893 3.92682C9.34828 3.00551 10.6517 3.00551 10.951 3.92682L12.0206 7.21862C12.1545 7.63064 12.5384 7.9096 12.9717 7.9096H16.4329C17.4016 7.9096 17.8044 9.14922 17.0207 9.71862L14.2205 11.7531C13.87 12.0077 13.7233 12.4591 13.8572 12.8711L14.9268 16.1629C15.2261 17.0842 14.1717 17.8503 13.3879 17.2809L10.5878 15.2465C10.2373 14.9918 9.76269 14.9918 9.4122 15.2465L6.61203 17.2809C5.82832 17.8503 4.77384 17.0842 5.07319 16.1629L6.14276 12.8711C6.27663 12.4591 6.12997 12.0077 5.77949 11.7531L2.97932 9.71862C2.1956 9.14922 2.59838 7.9096 3.5671 7.9096H7.0283C7.46153 7.9096 7.84548 7.63064 7.97936 7.21862L9.04893 3.92682Z" fill="#FACC15"/>
<path d="M33.0489 3.92682C33.3483 3.00551 34.6517 3.00551 34.951 3.92682L36.0206 7.21862C36.1545 7.63064 36.5384 7.9096 36.9717 7.9096H40.4329C41.4016 7.9096 41.8044 9.14922 41.0207 9.71862L38.2205 11.7531C37.87 12.0077 37.7233 12.4591 37.8572 12.8711L38.9268 16.1629C39.2261 17.0842 38.1717 17.8503 37.3879 17.2809L34.5878 15.2465C34.2373 14.9918 33.7627 14.9918 33.4122 15.2465L30.612 17.2809C29.8283 17.8503 28.7738 17.0842 29.0732 16.1629L30.1428 12.8711C30.2766 12.4591 30.13 12.0077 29.7795 11.7531L26.9793 9.71862C26.1956 9.14922 26.5984 7.9096 27.5671 7.9096H31.0283C31.4615 7.9096 31.8455 7.63064 31.9794 7.21862L33.0489 3.92682Z" fill="#FACC15"/>
<path d="M57.0489 3.92682C57.3483 3.00551 58.6517 3.00551 58.951 3.92682L60.0206 7.21862C60.1545 7.63064 60.5384 7.9096 60.9717 7.9096H64.4329C65.4016 7.9096 65.8044 9.14922 65.0207 9.71862L62.2205 11.7531C61.87 12.0077 61.7233 12.4591 61.8572 12.8711L62.9268 16.1629C63.2261 17.0842 62.1717 17.8503 61.3879 17.2809L58.5878 15.2465C58.2373 14.9918 57.7627 14.9918 57.4122 15.2465L54.612 17.2809C53.8283 17.8503 52.7738 17.0842 53.0732 16.1629L54.1428 12.8711C54.2766 12.4591 54.13 12.0077 53.7795 11.7531L50.9793 9.71862C50.1956 9.14922 50.5984 7.9096 51.5671 7.9096H55.0283C55.4615 7.9096 55.8455 7.63064 55.9794 7.21862L57.0489 3.92682Z" fill="#FACC15"/>
<path d="M81.0489 3.92682C81.3483 3.00551 82.6517 3.00551 82.951 3.92682L84.0206 7.21862C84.1545 7.63064 84.5384 7.9096 84.9717 7.9096H88.4329C89.4016 7.9096 89.8044 9.14922 89.0207 9.71862L86.2205 11.7531C85.87 12.0077 85.7233 12.4591 85.8572 12.8711L86.9268 16.1629C87.2261 17.0842 86.1717 17.8503 85.3879 17.2809L82.5878 15.2465C82.2373 14.9918 81.7627 14.9918 81.4122 15.2465L78.612 17.2809C77.8283 17.8503 76.7738 17.0842 77.0732 16.1629L78.1428 12.8711C78.2766 12.4591 78.13 12.0077 77.7795 11.7531L74.9793 9.71862C74.1956 9.14922 74.5984 7.9096 75.5671 7.9096H79.0283C79.4615 7.9096 79.8455 7.63064 79.9794 7.21862L81.0489 3.92682Z" fill="#FACC15"/>
<path d="M105.049 3.92682C105.348 3.00551 106.652 3.00551 106.951 3.92682L108.021 7.21862C108.154 7.63064 108.538 7.9096 108.972 7.9096H112.433C113.402 7.9096 113.804 9.14922 113.021 9.71862L110.22 11.7531C109.87 12.0077 109.723 12.4591 109.857 12.8711L110.927 16.1629C111.226 17.0842 110.172 17.8503 109.388 17.2809L106.588 15.2465C106.237 14.9918 105.763 14.9918 105.412 15.2465L102.612 17.2809C101.828 17.8503 100.774 17.0842 101.073 16.1629L102.143 12.8711C102.277 12.4591 102.13 12.0077 101.779 11.7531L98.9793 9.71862C98.1956 9.14922 98.5984 7.9096 99.5671 7.9096H103.028C103.462 7.9096 103.845 7.63064 103.979 7.21862L105.049 3.92682Z" fill="#FACC15"/>
</svg>
